<svg width="60" height="20" viewBox="0 0 60 20" fill="none" xmlns="http://www.w3.org/2000/svg">
<path d="M4.34738 15H3.15738L0.812384 8H1.96038L3.76638 13.341L5.55138 8H6.76238L8.55438 13.341L10.3394 8H11.5014L9.15638 15H7.95938L6.14638 9.61L4.34738 15ZM17.9893 8H19.1653V15H17.9893L17.9403 13.817C17.721 14.223 17.4176 14.552 17.0303 14.804C16.6476 15.056 16.1903 15.182 15.6583 15.182C15.145 15.182 14.6643 15.0863 14.2163 14.895C13.7683 14.699 13.3716 14.4307 13.0263 14.09C12.6856 13.7447 12.4196 13.348 12.2283 12.9C12.037 12.452 11.9413 11.969 11.9413 11.451C11.9413 10.9517 12.0346 10.4803 12.2213 10.037C12.408 9.59367 12.667 9.20633 12.9983 8.875C13.3343 8.539 13.7216 8.27767 14.1603 8.091C14.599 7.89967 15.0703 7.804 15.5743 7.804C16.125 7.804 16.608 7.93467 17.0233 8.196C17.4386 8.45267 17.7746 8.78633 18.0313 9.197L17.9893 8ZM15.6373 14.041C16.0993 14.041 16.4983 13.929 16.8343 13.705C17.175 13.4763 17.4363 13.1683 17.6183 12.781C17.805 12.3937 17.8983 11.9667 17.8983 11.5C17.8983 11.024 17.805 10.5947 17.6183 10.212C17.4316 9.82467 17.168 9.519 16.8273 9.295C16.4913 9.06633 16.0946 8.952 15.6373 8.952C15.1753 8.952 14.7553 9.06633 14.3773 9.295C13.9993 9.52367 13.6983 9.83167 13.4743 10.219C13.255 10.6017 13.1453 11.0287 13.1453 11.5C13.1453 11.9713 13.2596 12.4007 13.4883 12.788C13.717 13.1707 14.0203 13.4763 14.3983 13.705C14.7763 13.929 15.1893 14.041 15.6373 14.041ZM24.1904 9.176H22.6014L22.5944 15H21.4184L21.4254 9.176H20.2214V8H21.4254L21.4184 5.802H22.5944L22.6014 8H24.1904V9.176ZM30.0905 13.152L31.1405 13.719C30.8232 14.1623 30.4195 14.517 29.9295 14.783C29.4442 15.049 28.9169 15.182 28.3475 15.182C27.7035 15.182 27.1155 15.0163 26.5835 14.685C26.0562 14.3537 25.6339 13.9103 25.3165 13.355C25.0039 12.795 24.8475 12.1767 24.8475 11.5C24.8475 10.9867 24.9385 10.5083 25.1205 10.065C25.3025 9.617 25.5522 9.225 25.8695 8.889C26.1915 8.54833 26.5649 8.28233 26.9895 8.091C27.4142 7.89967 27.8669 7.804 28.3475 7.804C28.9169 7.804 29.4442 7.937 29.9295 8.203C30.4195 8.469 30.8232 8.826 31.1405 9.274L30.0905 9.841C29.8665 9.56567 29.6005 9.35333 29.2925 9.204C28.9845 9.05467 28.6695 8.98 28.3475 8.98C27.9135 8.98 27.5192 9.09667 27.1645 9.33C26.8145 9.55867 26.5369 9.86433 26.3315 10.247C26.1262 10.6297 26.0235 11.0473 26.0235 11.5C26.0235 11.9527 26.1262 12.3703 26.3315 12.753C26.5415 13.131 26.8215 13.4343 27.1715 13.663C27.5262 13.8917 27.9182 14.006 28.3475 14.006C28.6929 14.006 29.0172 13.9267 29.3205 13.768C29.6239 13.6093 29.8805 13.404 30.0905 13.152ZM38.4692 10.646V15H37.2932V10.905C37.2932 10.5503 37.2069 10.2283 37.0342 9.939C36.8615 9.64967 36.6305 9.421 36.3412 9.253C36.0519 9.08033 35.7299 8.994 35.3752 8.994C35.0252 8.994 34.7032 9.08033 34.4092 9.253C34.1199 9.421 33.8889 9.64967 33.7162 9.939C33.5435 10.2283 33.4572 10.5503 33.4572 10.905V15H32.2812V4.5H33.4572V8.875C33.7045 8.54833 34.0172 8.28933 34.3952 8.098C34.7732 7.902 35.1839 7.804 35.6272 7.804C36.1499 7.804 36.6259 7.93233 37.0552 8.189C37.4892 8.441 37.8322 8.78167 38.0842 9.211C38.3409 9.64033 38.4692 10.1187 38.4692 10.646ZM47.9948 6.271V8H50.0458V9.176H47.9948V15H46.8188V9.176H45.9158V8H46.8188V6.271C46.8188 5.91167 46.9052 5.58733 47.0778 5.298C47.2552 5.004 47.4908 4.77067 47.7848 4.598C48.0835 4.42067 48.4102 4.332 48.7648 4.332C49.0262 4.332 49.2805 4.38567 49.5278 4.493C49.7752 4.59567 49.9945 4.74967 50.1858 4.955L49.3458 5.788C49.2805 5.69933 49.1942 5.63167 49.0868 5.585C48.9842 5.53367 48.8768 5.508 48.7648 5.508C48.5548 5.508 48.3728 5.58267 48.2188 5.732C48.0695 5.88133 47.9948 6.061 47.9948 6.271ZM55.6313 8H56.8773L53.0483 18.5H51.8023L53.0693 15L50.5563 8H51.8443L53.6573 13.383L55.6313 8ZM58.1113 15.182C57.9339 15.182 57.7823 15.119 57.6563 14.993C57.5349 14.867 57.4743 14.713 57.4743 14.531C57.4743 14.3583 57.5349 14.209 57.6563 14.083C57.7823 13.957 57.9339 13.894 58.1113 13.894C58.2933 13.894 58.4473 13.957 58.5733 14.083C58.6993 14.209 58.7623 14.3583 58.7623 14.531C58.7623 14.713 58.6993 14.867 58.5733 14.993C58.4473 15.119 58.2933 15.182 58.1113 15.182Z" fill="#F31260"/>
<path d="M39.8691 8H41.9691V15H39.8691V8ZM40.9331 7.272C40.6298 7.272 40.3754 7.17167 40.1701 6.971C39.9648 6.77033 39.8621 6.52067 39.8621 6.222C39.8621 5.928 39.9648 5.68067 40.1701 5.48C40.3754 5.27467 40.6274 5.172 40.9261 5.172C41.2201 5.172 41.4674 5.27467 41.6681 5.48C41.8734 5.68067 41.9761 5.928 41.9761 6.222C41.9761 6.52067 41.8758 6.77033 41.6751 6.971C41.4791 7.17167 41.2318 7.272 40.9331 7.272Z" fill="#0A0A0A"/>
<path d="M45.0467 15L42.9467 15L42.9467 8L45.0467 8L45.0467 15ZM43.9827 15.728C44.2861 15.728 44.5404 15.8283 44.7457 16.029C44.9511 16.2297 45.0537 16.4793 45.0537 16.778C45.0537 17.072 44.9511 17.3193 44.7457 17.52C44.5404 17.7253 44.2884 17.828 43.9897 17.828C43.6957 17.828 43.4484 17.7253 43.2477 17.52C43.0424 17.3193 42.9397 17.072 42.9397 16.778C42.9397 16.4793 43.0401 16.2297 43.2407 16.029C43.4367 15.8283 43.6841 15.728 43.9827 15.728Z" fill="black"/>
</svg>
