<svg width="19" height="19" viewBox="0 0 19 19" fill="none" xmlns="http://www.w3.org/2000/svg">
<g filter="url(#filter0_d_20_58)">
<circle cx="9.5" cy="9.5" r="7.5" fill="#F31260"/>
</g>
<path d="M6.95328 6H9.05328V13H6.95328V6ZM8.01728 5.272C7.71395 5.272 7.45961 5.17167 7.25428 4.971C7.04895 4.77033 6.94628 4.52067 6.94628 4.222C6.94628 3.928 7.04895 3.68067 7.25428 3.48C7.45961 3.27467 7.71161 3.172 8.01028 3.172C8.30428 3.172 8.55161 3.27467 8.75228 3.48C8.95761 3.68067 9.06028 3.928 9.06028 4.222C9.06028 4.52067 8.95995 4.77033 8.75928 4.971C8.56328 5.17167 8.31595 5.272 8.01728 5.272Z" fill="white"/>
<path d="M6.95328 6H9.05328V13H6.95328V6ZM8.01728 5.272C7.71395 5.272 7.45961 5.17167 7.25428 4.971C7.04895 4.77033 6.94628 4.52067 6.94628 4.222C6.94628 3.928 7.04895 3.68067 7.25428 3.48C7.45961 3.27467 7.71161 3.172 8.01028 3.172C8.30428 3.172 8.55161 3.27467 8.75228 3.48C8.95761 3.68067 9.06028 3.928 9.06028 4.222C9.06028 4.52067 8.95995 4.77033 8.75928 4.971C8.56328 5.17167 8.31595 5.272 8.01728 5.272Z" fill="white"/>
<path d="M6.95328 6H9.05328V13H6.95328V6ZM8.01728 5.272C7.71395 5.272 7.45961 5.17167 7.25428 4.971C7.04895 4.77033 6.94628 4.52067 6.94628 4.222C6.94628 3.928 7.04895 3.68067 7.25428 3.48C7.45961 3.27467 7.71161 3.172 8.01028 3.172C8.30428 3.172 8.55161 3.27467 8.75228 3.48C8.95761 3.68067 9.06028 3.928 9.06028 4.222C9.06028 4.52067 8.95995 4.77033 8.75928 4.971C8.56328 5.17167 8.31595 5.272 8.01728 5.272Z" fill="white"/>
<path d="M12.0467 13H9.94672L9.94672 6H12.0467L12.0467 13ZM10.9827 13.728C11.2861 13.728 11.5404 13.8283 11.7457 14.029C11.9511 14.2297 12.0537 14.4793 12.0537 14.778C12.0537 15.072 11.9511 15.3193 11.7457 15.52C11.5404 15.7253 11.2884 15.828 10.9897 15.828C10.6957 15.828 10.4484 15.7253 10.2477 15.52C10.0424 15.3193 9.93972 15.072 9.93972 14.778C9.93972 14.4793 10.0401 14.2297 10.2407 14.029C10.4367 13.8283 10.6841 13.728 10.9827 13.728Z" fill="white"/>
<path d="M12.0467 13H9.94672L9.94672 6H12.0467L12.0467 13ZM10.9827 13.728C11.2861 13.728 11.5404 13.8283 11.7457 14.029C11.9511 14.2297 12.0537 14.4793 12.0537 14.778C12.0537 15.072 11.9511 15.3193 11.7457 15.52C11.5404 15.7253 11.2884 15.828 10.9897 15.828C10.6957 15.828 10.4484 15.7253 10.2477 15.52C10.0424 15.3193 9.93972 15.072 9.93972 14.778C9.93972 14.4793 10.0401 14.2297 10.2407 14.029C10.4367 13.8283 10.6841 13.728 10.9827 13.728Z" fill="white"/>
<path d="M12.0467 13H9.94672L9.94672 6H12.0467L12.0467 13ZM10.9827 13.728C11.2861 13.728 11.5404 13.8283 11.7457 14.029C11.9511 14.2297 12.0537 14.4793 12.0537 14.778C12.0537 15.072 11.9511 15.3193 11.7457 15.52C11.5404 15.7253 11.2884 15.828 10.9897 15.828C10.6957 15.828 10.4484 15.7253 10.2477 15.52C10.0424 15.3193 9.93972 15.072 9.93972 14.778C9.93972 14.4793 10.0401 14.2297 10.2407 14.029C10.4367 13.8283 10.6841 13.728 10.9827 13.728Z" fill="white"/>
<defs>
<filter id="filter0_d_20_58" x="0" y="0" width="19" height="19" filterUnits="userSpaceOnUse" color-interpolation-filters="sRGB">
<feFlood flood-opacity="0" result="BackgroundImageFix"/>
<feColorMatrix in="SourceAlpha" type="matrix" values="0 0 0 0 0 0 0 0 0 0 0 0 0 0 0 0 0 0 127 0" result="hardAlpha"/>
<feOffset/>
<feGaussianBlur stdDeviation="1"/>
<feComposite in2="hardAlpha" operator="out"/>
<feColorMatrix type="matrix" values="0 0 0 0 0.952941 0 0 0 0 0.0705882 0 0 0 0 0.376471 0 0 0 1 0"/>
<feBlend mode="normal" in2="BackgroundImageFix" result="effect1_dropShadow_20_58"/>
<feBlend mode="normal" in="SourceGraphic" in2="effect1_dropShadow_20_58" result="shape"/>
</filter>
</defs>
</svg>
