<svg width="15" height="15" viewBox="0 0 15 15" fill="none" xmlns="http://www.w3.org/2000/svg">
<path d="M4.84 4H6.94V11H4.84V4ZM5.904 3.272C5.60067 3.272 5.34633 3.17167 5.141 2.971C4.93567 2.77033 4.833 2.52067 4.833 2.222C4.833 1.928 4.93567 1.68067 5.141 1.48C5.34633 1.27467 5.59833 1.172 5.897 1.172C6.191 1.172 6.43833 1.27467 6.639 1.48C6.84433 1.68067 6.947 1.928 6.947 2.222C6.947 2.52067 6.84667 2.77033 6.646 2.971C6.45 3.17167 6.20267 3.272 5.904 3.272Z" fill="#F31260"/>
<path d="M10.16 11H8.06L8.06 4H10.16L10.16 11ZM9.096 11.728C9.39933 11.728 9.65367 11.8283 9.859 12.029C10.0643 12.2297 10.167 12.4793 10.167 12.778C10.167 13.072 10.0643 13.3193 9.859 13.52C9.65367 13.7253 9.40167 13.828 9.103 13.828C8.809 13.828 8.56167 13.7253 8.361 13.52C8.15567 13.3193 8.053 13.072 8.053 12.778C8.053 12.4793 8.15333 12.2297 8.354 12.029C8.55 11.8283 8.79733 11.728 9.096 11.728Z" fill="#F31260"/>
</svg>
